<svg fill="none" xmlns="http://www.w3.org/2000/svg" viewBox="0 0 11 15"><path d="M5.5.626a3.785 3.785 0 00-2.692 1.132 3.883 3.883 0 00-1.113 2.728v1.43a2.483 2.483 0 00-1.226.913C.164 7.256 0 7.77 0 8.296v3.818c0 .666.261 1.305.726 1.776a2.465 2.465 0 001.754.736h6.04c.658 0 1.288-.265 1.754-.736.465-.47.726-1.11.726-1.776V8.287c0-.526-.165-1.04-.469-1.466a2.482 2.482 0 00-1.226-.914V4.486c0-1.023-.4-2.004-1.113-2.728A3.785 3.785 0 005.5.626zm0 .837a2.948 2.948 0 012.108.887 3.052 3.052 0 01.87 2.136v1.298H2.522V4.486a3.052 3.052 0 01.87-2.136A2.948 2.948 0 015.5 1.464zm4.673 6.824v3.827c0 .444-.174.87-.484 1.184-.31.314-.73.49-1.17.49H2.48c-.438 0-.859-.176-1.169-.49a1.686 1.686 0 01-.484-1.184V8.287c0-.444.174-.87.484-1.184.31-.314.73-.49 1.17-.49H8.52c.438 0 .859.176 1.169.49.31.314.484.74.484 1.184z" fill="#fff"/><rect x="5" y="9.626" width="1" height="2" rx=".5" fill="#fff"/></svg>